# xmcd CD database file
#
# Track frame offsets:
#	150
#	13329
#	28944
#	34881
#	49159
#	62153
#	77930
#	90536
#	102129
#	115563
#	131274
#	142779
#	150833
#	171847
#	181305
#	192668
#	204620
#	219254
#	235852
#	239290
#
# Disc length: 3379 seconds
#
# Revision: 0
# Processed by: cddbd v1.5.2PL0 Copyright (c) Steve Scherf et al.
# Submitted via: CDex 1.51
#
DISCID=0a0d3114
DTITLE=Lambert, Hendricks and Ross - Seven Classic Albums (Remaster)
DYEAR=2014
DGENRE=Jazz
TTITLE0=Cottontail (1960, Sing Ellington)
TTITLE1=All Too Soon (1960, Sing Ellington)
TTITLE2=Happy Anatomy (1960, Sing Ellington)
TTITLE3=Rocks In My Bed (1960, Sing Ellington)
TTITLE4=Main Stem (1960, Sing Ellington)
TTITLE5=I Don't Know What Kind Of Blues I've Got (1960, Sing Ellington)
TTITLE6=Things Ain't What They Used To Be (1960, Sing Ellington)
TTITLE7=Midnight Indigo (1960, Sing Ellington)
TTITLE8=What Am I Here For (1960, Sing Ellington)
TTITLE9=In A Mellow Tone (1960, Sing Ellington)
TTITLE10=Caravan (1960, Sing Ellington)
TTITLE11=Everybody's Comin' (1962, The Real Ambassadors)
TTITLE12=Cultural Exchange (1962, The Real Ambassadors)
TTITLE13=Good Reviews (1962, The Real Ambassadors)
TTITLE14=Remember Who You Are (1962, The Real Ambassadors)
TTITLE15=My One Bad Habit (1962, The Real Ambassadors)
TTITLE16=Summer Song (1962, The Real Ambassadors)
TTITLE17=King For A Day (1962, The Real Ambassadors)
TTITLE18=Blow Satchmo (1962, The Real Ambassadors)
TTITLE19=The Real Ambassadors (1962, The Real Ambassadors)
EXTD=YEAR: 2014
EXTT0=
EXTT1=
EXTT2=
EXTT3=
EXTT4=
EXTT5=
EXTT6=
EXTT7=
EXTT8=
EXTT9=
EXTT10=
EXTT11=
EXTT12=
EXTT13=
EXTT14=
EXTT15=
EXTT16=
EXTT17=
EXTT18=
EXTT19=
PLAYORDER=
